<svg width="23" height="22" viewBox="0 0 23 22" fill="none" xmlns="http://www.w3.org/2000/svg">
<path d="M8 5V10.7345C7.125 11.369 6.5 12.338 6.5 13.5C6.5 15.4275 8.0725 17 10 17C11.9275 17 13.5 15.4275 13.5 13.5C13.5 12.338 12.875 11.369 12 10.7345V10H13V9H12V8H13V7H12V6H13V5H8ZM15.75 5C14.785 5 14 5.785 14 6.75C14 7.715 14.785 8.5 15.75 8.5C16.715 8.5 17.5 7.715 17.5 6.75C17.5 5.785 16.715 5 15.75 5ZM9 6H11V11.203L11.25 11.344C11.998 11.7775 12.5 12.574 12.5 13.5C12.5 14.8865 11.3865 16 10 16C8.6135 16 7.5 14.8865 7.5 13.5C7.5 12.574 8.002 11.7775 8.75 11.3435L9 11.2035V6ZM15.75 6C16.1635 6 16.5 6.3365 16.5 6.75C16.5 7.1635 16.1635 7.5 15.75 7.5C15.3365 7.5 15 7.1635 15 6.75C15 6.3365 15.3365 6 15.75 6ZM9.5 7V12.094C8.92 12.301 8.5 12.8505 8.5 13.501C8.5101 13.8921 8.67257 14.2638 8.95277 14.5369C9.23297 14.8099 9.60875 14.9628 10 14.9628C10.3913 14.9628 10.767 14.8099 11.0472 14.5369C11.3274 14.2638 11.4899 13.8921 11.5 13.501C11.5 12.8505 11.08 12.301 10.5 12.094V7H9.5Z" fill="#112D82"/>
</svg>
