<svg width="23" height="22" viewBox="0 0 23 22" fill="none" xmlns="http://www.w3.org/2000/svg">
<path d="M11.8365 5.11215C11.7379 5.03915 11.6204 5 11.5 5C11.3796 5 11.2621 5.03915 11.1635 5.11215C10.4072 5.70158 9.71518 6.37816 9.10033 7.1294C7.72636 8.79804 7 10.5665 7 12.2413C7 13.5034 7.47411 14.7138 8.31802 15.6062C9.16193 16.4986 10.3065 17 11.5 17C12.6935 17 13.8381 16.4986 14.682 15.6062C15.5259 14.7138 16 13.5034 16 12.2413C16 8.23993 12.0067 5.23784 11.8365 5.11215ZM11.5 15.7586C10.6181 15.7577 9.77267 15.3868 9.1491 14.7274C8.52554 14.068 8.17482 13.1739 8.17391 12.2413C8.17391 10.5184 9.15217 8.96356 9.96902 7.9632C10.4354 7.39671 10.9477 6.87438 11.5 6.40216C12.0523 6.87438 12.5646 7.39671 13.031 7.9632C13.8478 8.96356 14.8261 10.5184 14.8261 12.2413C14.8252 13.1739 14.4745 14.068 13.8509 14.7274C13.2273 15.3868 12.3819 15.7577 11.5 15.7586ZM13.9271 13.0482C13.8042 13.4613 13.5888 13.8369 13.2993 14.143C13.0098 14.4492 12.6546 14.6769 12.264 14.8069C12.207 14.8256 12.1476 14.8352 12.0879 14.8353C11.9476 14.8354 11.8119 14.7824 11.7054 14.6858C11.5989 14.5892 11.5286 14.4555 11.5073 14.3088C11.4861 14.1622 11.5152 14.0123 11.5894 13.8864C11.6636 13.7604 11.778 13.6668 11.9118 13.6224C12.1223 13.5525 12.3137 13.4298 12.4698 13.2648C12.6258 13.0998 12.7418 12.8974 12.8079 12.6748C12.8311 12.597 12.8684 12.5248 12.918 12.4623C12.9675 12.3998 13.0281 12.3483 13.0965 12.3106C13.2345 12.2344 13.3955 12.2194 13.5441 12.2688C13.6176 12.2932 13.6859 12.3327 13.745 12.3851C13.8041 12.4375 13.8529 12.5016 13.8885 12.5739C13.9242 12.6462 13.946 12.7252 13.9528 12.8064C13.9596 12.8876 13.9512 12.9694 13.928 13.0472L13.9271 13.0482Z" fill="#112D82"/>
</svg>
