<svg width="23" height="22" viewBox="0 0 23 22" fill="none" xmlns="http://www.w3.org/2000/svg">
<path d="M7.71898 8.05543H12.8997C13.1827 8.06086 13.4617 7.98711 13.7053 7.84244C13.9489 7.69777 14.1475 7.48791 14.2788 7.2364C14.4101 6.98488 14.4689 6.70166 14.4486 6.41851C14.4284 6.13535 14.3298 5.86345 14.1641 5.63331C13.9983 5.40317 13.7719 5.22389 13.5102 5.11558C13.2485 5.00726 12.9618 4.9742 12.6825 5.0201C12.4031 5.066 12.1419 5.18905 11.9284 5.37543C11.7148 5.56182 11.5573 5.80418 11.4735 6.07533M6.5 10.5H15.9471C16.2302 10.4946 16.5092 10.5683 16.7528 10.713C16.9964 10.8577 17.1949 11.0675 17.3262 11.319C17.4575 11.5705 17.5164 11.8538 17.4961 12.1369C17.4758 12.4201 17.3773 12.692 17.2115 12.9221C17.0458 13.1523 16.8193 13.3315 16.5576 13.4399C16.2959 13.5482 16.0093 13.5812 15.7299 13.5353C15.4505 13.4894 15.1894 13.3664 14.9759 13.18C14.7623 12.9936 14.6048 12.7512 14.5209 12.4801M7.10949 12.9446H10.4617C10.7448 12.9391 11.0237 13.0129 11.2673 13.1576C11.5109 13.3022 11.7095 13.5121 11.8408 13.7636C11.9721 14.0151 12.0309 14.2983 12.0107 14.5815C11.9904 14.8646 11.8919 15.1365 11.7261 15.3667C11.5603 15.5968 11.3339 15.7761 11.0722 15.8844C10.8105 15.9927 10.5239 16.0258 10.2445 15.9799C9.96509 15.934 9.70398 15.811 9.49043 15.6246C9.27688 15.4382 9.11934 15.1958 9.03548 14.9247" stroke="#112D82" stroke-width="1.1" stroke-linecap="round" stroke-linejoin="round"/>
</svg>
